<svg version="1.1" id="Layer_1" xmlns="http://www.w3.org/2000/svg" xmlns:xlink="http://www.w3.org/1999/xlink" x="0px" y="0px"
	 width="100%" viewBox="0 0 310 200" enable-background="new 0 0 310 200" xml:space="preserve">
<path fill="#000000" opacity="1.000000" stroke="none" 
	d="
M204.000000,201.000000 
	C137.333344,201.000000 71.166611,200.966202 5.000214,201.096603 
	C1.575590,201.103348 0.896241,200.424637 0.903286,196.999832 
	C1.034936,133.000107 1.034931,68.999977 0.903296,5.000247 
	C0.896253,1.575603 1.575876,0.900451 5.000063,0.904461 
	C105.666580,1.022349 206.333282,1.022343 306.999786,0.904480 
	C310.423676,0.900471 311.103760,1.575182 311.096710,5.000113 
	C310.965057,68.999840 310.965088,132.999969 311.096710,196.999695 
	C311.103729,200.424194 310.426636,201.115570 306.999634,201.099182 
	C272.833710,200.935684 238.666702,201.000000 204.000000,201.000000 
z"/>
<path fill="#E2CF4A" opacity="1.000000" stroke="none" 
	d="
M42.872150,18.074186 
	C47.539536,11.826393 54.240643,12.344030 60.399582,12.276756 
	C80.723679,12.054756 101.052299,12.268072 121.379196,12.275398 
	C166.364578,12.291614 211.349991,12.270013 256.335327,12.318434 
	C259.316589,12.321642 262.325897,12.603764 265.272644,13.069508 
	C272.206421,14.165421 276.001221,19.713587 276.008179,28.729225 
	C276.035370,63.885796 276.019287,99.042397 276.019287,134.198990 
	C276.019318,143.529648 276.156311,152.863449 275.942322,162.189194 
	C275.871063,165.295197 276.729340,166.209869 279.823517,166.052490 
	C284.975098,165.790451 290.152893,165.873276 295.314117,166.014084 
	C302.525757,166.210846 307.668701,171.021820 307.863617,178.165100 
	C308.030060,184.265747 305.636353,191.572220 297.659637,192.305939 
	C295.513397,192.503342 293.364777,192.832825 291.217133,192.833481 
	C202.742493,192.860275 114.267860,192.858276 25.793226,192.844482 
	C23.799877,192.844162 21.776726,192.852097 19.818436,192.538223 
	C11.742087,191.243820 7.791102,186.409210 8.211320,178.532303 
	C8.630125,170.681900 13.581554,166.121445 21.950741,165.994827 
	C26.948170,165.919189 31.952625,165.848251 36.944103,166.036148 
	C39.374645,166.127670 40.230000,165.194260 40.200188,162.946136 
	C40.160450,159.949203 40.176731,156.951447 40.178963,153.954041 
	C40.208744,113.966293 40.188076,73.978348 40.334671,33.991020 
	C40.353901,28.745533 39.986725,23.310520 42.872150,18.074186 
z"/>
<path fill="#30362C" opacity="1.000000" stroke="none" 
	d="
M68.004410,19.024038 
	C131.995010,19.024050 195.486649,19.023127 258.978271,19.025230 
	C267.136993,19.025499 268.894287,20.579025 269.690765,28.618198 
	C269.870941,30.436934 269.858398,32.279144 269.859589,34.110592 
	C269.886780,76.604744 269.904266,119.098907 269.921692,161.593063 
	C269.924561,168.542389 269.499817,168.974838 262.635529,168.974991 
	C192.978043,168.976532 123.320557,168.976791 53.663067,168.974594 
	C46.857971,168.974380 46.826344,168.965637 46.830967,161.969437 
	C46.859913,118.142075 46.891956,74.314697 46.952534,30.487364 
	C46.966267,20.552948 48.560688,19.025425 58.506100,19.024101 
	C61.505878,19.023703 64.505653,19.024040 68.004410,19.024038 
z"/>
<path fill="#32382E" opacity="1.000000" stroke="none" 
	d="
M241.000031,173.129730 
	C258.657776,173.143295 275.815552,173.162674 292.973297,173.165604 
	C296.467010,173.166214 299.602051,173.522995 300.573639,177.810303 
	C301.468811,181.760330 299.656494,184.722000 295.595398,185.035721 
	C292.451508,185.278580 289.279480,185.193405 286.119965,185.192566 
	C198.665253,185.169052 111.210556,185.143311 23.755854,185.097275 
	C16.509726,185.093460 15.211803,183.631271 15.991522,177.168839 
	C16.229963,175.192596 17.083971,174.310699 18.982155,173.826263 
	C20.954365,173.322937 22.903193,173.166779 24.904284,173.165741 
	C60.552486,173.147202 96.200752,173.147507 131.848785,173.058823 
	C135.250412,173.050354 138.006683,173.244522 139.149826,177.277435 
	C139.699097,179.215240 141.606186,180.127335 143.913971,180.104889 
	C153.240982,180.014191 162.569977,180.018097 171.897003,180.112106 
	C174.569931,180.139053 176.611404,179.165741 177.378571,176.721237 
	C178.493454,173.168777 181.032059,173.055557 184.029404,173.067047 
	C202.852737,173.139221 221.676437,173.119247 241.000031,173.129730 
z"/>
<path fill="#3D4134" opacity="1.000000" stroke="none" 
	d="
M155.042068,176.011932 
	C150.796631,175.540466 146.775528,177.071274 143.095062,174.960373 
	C143.789505,173.478622 144.662674,173.166779 145.735275,173.165359 
	C154.017059,173.154388 162.298859,173.126740 170.580643,173.123459 
	C171.706100,173.123016 173.199448,172.941147 173.127518,174.619949 
	C173.057541,176.253372 171.569901,176.000443 170.441132,176.003387 
	C165.471954,176.016327 160.502731,176.010788 155.042068,176.011932 
z"/>
<path fill="#F0DA4C" opacity="1.000000" stroke="none" 
	d="
M209.000000,159.999115 
	C160.687851,159.999100 112.875710,160.000443 65.063560,159.997620 
	C58.008698,159.997208 58.001026,159.988129 58.000546,153.109940 
	C57.997883,115.126770 57.997513,77.143608 58.001049,39.160439 
	C58.001625,32.966682 58.579369,32.305096 64.796059,32.306129 
	C126.767914,32.316452 188.739792,32.348694 250.711609,32.404095 
	C257.999695,32.410610 258.000488,32.492325 258.000519,39.889397 
	C258.000793,78.039162 257.937683,116.189163 258.087555,154.338348 
	C258.104523,158.664505 256.934235,160.164246 252.479370,160.088989 
	C238.156494,159.847061 223.826965,159.999054 209.000000,159.999115 
z"/>
<path fill="#DECB4C" opacity="1.000000" stroke="none" 
	d="
M158.053680,28.873911 
	C155.030380,27.775539 154.908676,26.050503 156.583847,23.948400 
	C157.673630,22.580881 158.929214,22.843550 159.966141,23.900509 
	C162.444992,26.427244 159.976715,27.510744 158.053680,28.873911 
z"/>
<path fill="#CEBE4C" opacity="1.000000" stroke="none" 
	d="
M35.519722,177.491516 
	C36.216759,177.291061 36.563904,177.168152 36.861897,177.242416 
	C38.897976,177.749893 42.806740,177.122528 42.468178,179.241837 
	C41.950363,182.483246 38.098545,180.977005 35.756340,180.854126 
	C33.106274,180.715118 33.658257,179.072617 35.519722,177.491516 
z"/>
<path fill="#2F352C" opacity="1.000000" stroke="none" 
	d="
M218.451691,127.756012 
	C215.236313,125.194626 213.865707,122.174736 213.960480,118.421501 
	C214.052643,114.771873 213.818008,111.107811 214.037842,107.468872 
	C214.485397,100.060349 218.763870,96.062889 226.125565,95.929665 
	C231.622345,95.830177 237.138687,96.021301 242.611557,95.615021 
	C247.945740,95.219025 248.635254,98.745651 248.931641,102.477402 
	C249.319626,107.362350 246.756500,110.734039 242.711029,110.958633 
	C239.554688,111.133873 236.379333,110.937805 233.216049,111.030792 
	C231.905579,111.069313 230.135330,110.338646 229.957031,112.862740 
	C229.799591,115.091476 231.529190,115.326881 232.760330,115.659981 
	C236.072830,116.556252 239.481216,117.092834 242.841095,117.820503 
	C247.227722,118.770546 249.476166,121.431313 250.213867,125.959541 
	C251.109360,131.456345 251.380707,136.828674 250.042694,142.271835 
	C248.649231,147.940475 245.386337,150.869995 239.626785,151.066391 
	C232.967926,151.293457 226.301804,151.300003 219.641235,151.487625 
	C215.502045,151.604202 213.777695,150.031784 213.881989,145.586197 
	C214.101212,136.240860 214.056198,136.053329 223.267670,136.067825 
	C225.933426,136.072021 228.599335,136.048431 231.264969,136.018829 
	C232.756866,136.002258 234.526215,136.171875 234.851654,134.208847 
	C235.237030,131.884171 233.094955,131.425751 231.645966,131.209229 
	C227.235764,130.550232 222.878479,129.818939 218.451691,127.756012 
z"/>
<path fill="#2F342C" opacity="1.000000" stroke="none" 
	d="
M175.278458,121.019127 
	C183.628128,122.197067 183.628265,122.197060 184.172394,130.205795 
	C184.183685,130.371887 184.142349,130.551620 184.191635,130.703568 
	C185.135849,133.615479 184.238739,138.274307 189.155731,137.838837 
	C193.384979,137.464310 192.987350,133.577011 192.993530,130.441315 
	C193.012543,120.776894 193.161484,111.108521 192.929321,101.449631 
	C192.818069,96.821236 194.249283,94.763977 199.178741,94.926041 
	C208.948746,95.247253 208.015137,93.913002 208.041718,103.798065 
	C208.073074,115.461884 208.050476,127.126083 207.992081,138.789825 
	C207.947464,147.702301 204.234116,152.435898 195.457809,153.782059 
	C191.232910,154.430115 186.767578,154.343460 182.515427,153.789276 
	C175.859787,152.921844 171.215744,149.397049 170.358841,142.170029 
	C169.730011,136.866257 169.726974,131.540024 170.334778,126.263206 
	C170.620148,123.785751 171.838455,121.456688 175.278458,121.019127 
z"/>
</svg>