<svg version="1.1" id="Layer_1" xmlns="http://www.w3.org/2000/svg" xmlns:xlink="http://www.w3.org/1999/xlink" x="0px" y="0px"
	 width="100%" viewBox="0 0 1150 638" enable-background="new 0 0 1150 638" xml:space="preserve">
<path fill="#2D332C" opacity="1.000000" stroke="none" 
	d="
M766.000000,639.000000 
	C510.666687,639.000000 255.833359,639.000000 1.000034,639.000000 
	C1.000023,426.333374 1.000023,213.666718 1.000011,1.000063 
	C384.333282,1.000042 767.666565,1.000042 1151.000000,1.000021 
	C1151.000000,213.666611 1151.000000,426.333221 1151.000000,638.999878 
	C1022.833313,639.000000 894.666687,639.000000 766.000000,639.000000 
M648.500000,150.922226 
	C534.356079,150.922226 420.212128,150.907578 306.068207,150.964722 
	C300.255890,150.967636 294.398804,151.240387 288.640411,151.987564 
	C272.410309,154.093399 261.997650,163.949753 259.271393,180.082245 
	C258.224213,186.278961 257.981171,192.671768 257.977051,198.975601 
	C257.903809,310.953461 257.922882,422.931335 257.926727,534.909241 
	C257.926941,540.907593 258.038635,546.906799 257.971863,552.904175 
	C257.885193,560.690186 256.617401,561.980957 248.974915,561.979004 
	C234.812195,561.975464 220.649445,561.826721 206.486816,561.841614 
	C186.168060,561.862976 173.036575,574.036682 172.438766,594.319580 
	C172.083023,606.390076 174.309082,618.077759 185.039154,625.894836 
	C192.848450,631.584045 202.052567,632.078003 211.294357,632.077942 
	C452.746704,632.076599 694.199036,632.077026 935.651367,632.073792 
	C937.483887,632.073792 939.319214,632.083984 941.148499,631.993103 
	C957.950806,631.158569 968.213501,622.884460 971.606445,606.442139 
	C976.701355,581.752380 964.829529,560.810059 936.448120,561.835938 
	C922.635559,562.335266 908.790039,561.929077 894.959412,561.919312 
	C887.958740,561.914368 887.755981,561.696472 887.712830,554.569092 
	C887.704712,553.236084 887.711304,551.902954 887.711304,550.569885 
	C887.711243,433.426361 887.720337,316.282837 887.680237,199.139313 
	C887.678528,194.149933 887.506470,189.127167 886.923218,184.177765 
	C885.241882,169.909119 878.850769,158.550034 864.554565,154.058258 
	C857.401489,151.810760 849.518982,151.077042 841.961548,151.050598 
	C777.808350,150.826080 713.653992,150.922241 648.500000,150.922226 
M553.414124,69.384583 
	C553.928223,72.155449 554.691223,74.907906 554.898010,77.701515 
	C555.205994,81.861885 557.250427,83.686729 561.330139,83.509712 
	C562.989136,83.437721 564.654663,83.461441 566.315735,83.501640 
	C575.522217,83.724457 576.509644,82.793724 576.493591,73.337784 
	C576.469849,59.357849 576.344360,45.378109 576.309998,31.398167 
	C576.276367,17.728630 576.302673,17.728567 562.445618,18.000555 
	C556.277710,18.121620 555.050476,19.472372 554.968994,25.798847 
	C554.919678,29.631845 554.639221,33.461868 554.462585,37.293232 
	C553.983459,37.377487 553.504272,37.461742 553.025146,37.545998 
	C548.595215,32.438908 544.248657,27.256380 539.711426,22.246458 
	C535.378235,17.461840 526.970886,15.871708 521.420532,18.957315 
	C520.161255,19.657368 519.011597,21.818953 519.004150,23.313711 
	C518.914978,41.285828 519.004089,59.259575 519.204346,77.231140 
	C519.222839,78.893227 520.152405,81.882545 520.945496,81.982506 
	C526.260986,82.652565 531.772949,83.498802 536.985840,82.717720 
	C541.413635,82.054298 540.339294,77.198753 540.446228,73.884056 
	C540.646790,67.669647 540.504028,61.444164 540.504028,54.239952 
	C546.657776,58.476048 550.747803,62.810555 553.414124,69.384583 
M435.208435,80.395142 
	C446.799164,86.999863 459.149536,86.224823 471.561218,83.904465 
	C481.690002,82.010887 485.790100,77.061646 485.965820,66.710403 
	C486.146576,56.062748 486.107452,45.410088 486.055206,34.760151 
	C486.011261,25.803864 481.879150,20.491318 473.233856,18.120016 
	C463.244507,15.380054 453.196899,15.340560 443.158051,17.803715 
	C432.592926,20.395979 429.040741,24.780304 428.968079,35.705372 
	C428.896179,46.519890 428.622711,57.371624 429.424255,68.133568 
	C429.725861,72.183815 432.797882,76.027733 435.208435,80.395142 
M950.402222,78.176140 
	C950.909302,84.245934 955.870605,84.223701 959.986633,84.780075 
	C965.158813,85.479210 970.198853,82.660683 970.941467,77.499298 
	C971.966797,70.373489 971.601074,63.019314 971.431335,55.772301 
	C971.395020,54.221424 969.975403,52.269733 968.625549,51.265175 
	C964.782532,48.405113 964.313965,45.024761 965.722961,40.745975 
	C966.437134,38.577251 966.615356,36.163864 966.656677,33.854290 
	C966.788940,26.457794 963.205566,21.504868 956.124634,19.444664 
	C953.596802,18.709173 950.901123,18.272360 948.271057,18.216927 
	C939.122864,18.024107 929.969360,17.982641 920.818787,18.035250 
	C915.575562,18.065393 914.097107,19.625849 913.956848,24.992874 
	C913.856995,28.817139 913.991821,32.647106 913.994385,36.474548 
	C914.003479,50.288055 914.069336,64.102127 913.957825,77.914726 
	C913.927490,81.671104 915.164429,83.486824 919.156982,83.241333 
	C921.626404,83.089508 924.139893,83.712921 926.616028,83.600502 
	C935.054199,83.217415 935.580933,82.549263 935.168518,74.238579 
	C935.078064,72.414009 935.275208,70.573219 935.151733,68.752647 
	C934.859009,64.434891 937.008972,62.915466 941.104187,62.719090 
	C948.956055,62.342571 950.624451,63.640045 950.871155,71.408958 
	C950.934082,73.389107 950.622009,75.381165 950.402222,78.176140 
M232.994324,48.529873 
	C229.971588,40.098301 227.233368,31.545982 223.739975,23.314157 
	C222.783371,21.060055 219.705582,18.543325 217.353058,18.268078 
	C210.955292,17.519541 204.422806,17.784073 197.947403,17.884495 
	C193.398773,17.955038 189.299316,19.465611 187.285660,23.911049 
	C180.646759,38.567455 176.144714,53.811592 176.282028,70.050827 
	C176.414856,85.759323 179.270325,83.745529 189.715378,83.617630 
	C196.538452,83.534081 197.882431,82.322517 197.844528,75.550156 
	C197.810211,69.418663 199.220978,68.014343 205.479568,67.949989 
	C211.636566,67.886681 212.727570,69.252525 213.046219,75.613487 
	C213.167297,78.030479 214.322708,82.281708 215.462128,82.441093 
	C220.923401,83.205032 226.550568,83.025932 232.091629,82.708176 
	C232.900574,82.661797 234.217438,80.050491 234.188309,78.649101 
	C233.985336,68.880775 233.489426,59.118549 232.994324,48.529873 
M877.070923,41.476200 
	C874.686829,35.108112 872.487183,28.660492 869.798950,22.423519 
	C869.054199,20.695757 866.890686,18.441635 865.321899,18.396717 
	C856.877625,18.154947 848.402405,18.322996 839.969788,18.855402 
	C838.021545,18.978409 835.214783,20.647491 834.470459,22.338898 
	C827.411316,38.380257 821.601501,54.718479 822.980774,72.779808 
	C823.786865,83.335983 823.570312,83.483383 834.202271,83.508270 
	C843.532410,83.530098 843.978088,83.190353 843.952332,73.763763 
	C843.941345,69.721069 845.661560,67.902290 849.618774,68.001564 
	C851.448608,68.047462 853.284729,67.962440 855.108948,68.079002 
	C858.118835,68.271317 859.437927,69.917152 859.506592,72.971558 
	C859.748474,83.732452 859.800049,83.728180 870.364746,83.527756 
	C871.194702,83.512009 872.026550,83.575928 872.857056,83.612183 
	C878.738708,83.869011 880.718018,82.187546 880.992432,76.272232 
	C881.526794,64.751549 880.835693,53.345806 877.070923,41.476200 
M784.264160,80.915611 
	C789.020142,77.816223 790.943848,73.316483 790.944824,67.764275 
	C790.946838,55.602108 790.993774,43.439701 791.083496,31.277847 
	C791.183411,17.730343 791.212952,17.730562 777.843140,18.070210 
	C771.171875,18.239685 770.061584,19.269848 770.008972,26.005095 
	C769.919312,37.499962 769.955933,48.995808 769.937866,60.491241 
	C769.930420,65.223289 767.087646,66.897850 762.851379,66.973106 
	C758.579773,67.048973 755.731689,65.478951 755.755554,60.659004 
	C755.777039,56.327736 755.786438,51.995251 755.709961,47.664909 
	C755.574707,40.009285 755.725952,32.320324 754.987854,24.720016 
	C754.752197,22.293730 752.340027,18.426550 750.472351,18.137764 
	C745.874023,17.426765 740.991272,18.239809 736.278870,18.863041 
	C735.389832,18.980614 734.096375,21.061962 734.109680,22.224297 
	C734.296387,38.523933 734.700195,54.820938 734.995117,71.119598 
	C735.067017,75.092598 737.153381,77.702782 740.458008,79.383545 
	C754.537415,86.544571 768.906433,87.945404 784.264160,80.915611 
M138.137970,83.708931 
	C145.589066,83.450890 146.704758,82.106117 146.516098,73.610619 
	C146.370361,67.047821 145.019928,65.853584 137.940689,65.923897 
	C133.113525,65.971840 128.285782,65.991653 123.458405,65.979156 
	C120.943985,65.972656 118.036469,66.196747 117.982208,62.559353 
	C117.922539,58.559494 121.306313,59.632591 123.519051,59.390526 
	C125.649567,59.157452 127.838821,59.390480 129.997925,59.502342 
	C137.106277,59.870621 139.017044,58.113998 139.072525,51.085495 
	C139.129883,43.818031 137.137314,41.862778 129.919815,42.063282 
	C127.756996,42.123363 125.580338,42.279224 123.432182,42.109970 
	C121.181496,41.932636 117.830315,43.022991 118.000412,38.954426 
	C118.157066,35.207623 121.360603,35.836662 123.682381,35.766666 
	C129.005432,35.606182 134.336853,35.750591 139.664169,35.698162 
	C145.327576,35.642433 146.447769,34.512516 146.494354,29.038189 
	C146.504257,27.875515 146.510910,26.712690 146.504333,25.550020 
	C146.468658,19.251429 145.209930,18.002308 138.845551,18.005133 
	C127.359344,18.010233 115.873138,18.027657 104.386932,18.043203 
	C97.914154,18.051964 96.730438,19.099405 96.706360,25.516584 
	C96.643875,42.165752 96.651039,58.815411 96.700073,75.464668 
	C96.721260,82.660713 97.951859,83.654190 105.274826,83.617867 
	C115.921471,83.565041 126.568893,83.669617 138.137970,83.708931 
M652.001099,48.127708 
	C653.804443,54.171314 658.507629,56.681919 664.146851,57.867729 
	C668.041382,58.686684 672.070374,58.938667 675.899109,59.966431 
	C677.766113,60.467602 679.312561,62.162868 681.004150,63.317616 
	C679.085999,64.195084 677.204651,65.716919 675.242859,65.828773 
	C669.438538,66.159706 663.597717,66.076187 657.780457,65.879669 
	C653.297913,65.728249 651.324951,67.780693 651.312927,72.084442 
	C651.308777,73.582062 651.277649,75.080017 651.299622,76.577225 
	C651.380737,82.113419 652.568237,83.619278 657.922852,83.627136 
	C668.233215,83.642258 678.553467,83.575546 688.851501,83.125946 
	C696.921143,82.773636 702.388306,77.318504 703.138489,69.198158 
	C703.503357,65.248596 703.302979,61.226711 703.108337,57.249809 
	C702.720642,49.326916 699.370605,45.410282 691.662170,43.871880 
	C686.942261,42.929897 682.135498,42.404774 677.442871,41.356071 
	C676.111328,41.058502 675.044006,39.579079 673.855469,38.641693 
	C675.179382,37.709953 676.446289,36.091198 677.837891,35.975685 
	C681.960571,35.633476 686.134827,35.801414 690.284607,35.920410 
	C699.018188,36.170845 703.586609,29.112799 699.493958,21.196346 
	C698.736755,19.731638 696.477295,18.187452 694.880188,18.153847 
	C685.406311,17.954500 675.908142,17.891937 666.448425,18.375862 
	C659.385864,18.737154 653.636230,22.254622 652.318359,29.545776 
	C651.276001,35.312859 651.919434,41.384640 652.001099,48.127708 
M356.422394,57.296825 
	C361.323578,58.160458 366.276703,58.813183 371.098358,59.999916 
	C372.831177,60.426403 374.247528,62.138809 375.808319,63.264343 
	C374.052887,64.149773 372.332123,65.707169 370.535767,65.799919 
	C364.058716,66.134392 357.536194,65.706551 351.076965,66.186859 
	C349.406647,66.311058 346.405762,68.960274 346.587341,70.001076 
	C347.333313,74.277306 343.505859,79.419655 348.712585,82.848259 
	C349.092651,83.098526 349.679504,83.094292 350.172394,83.104881 
	C359.484009,83.304871 368.838440,84.139313 378.098480,83.533966 
	C394.529755,82.459831 398.166504,78.049576 398.078156,61.616920 
	C398.070984,60.285027 398.103302,58.951782 398.054962,57.621433 
	C397.762512,49.576374 394.281250,45.402454 386.376892,43.854839 
	C381.819275,42.962486 377.171906,42.486359 372.663422,41.410225 
	C371.258270,41.074825 370.175537,39.388908 368.945221,38.321236 
	C370.351837,37.497318 371.719574,36.051620 373.172028,35.960831 
	C378.480988,35.628979 383.818573,35.774891 389.144501,35.687672 
	C391.961792,35.641544 395.145294,35.107918 394.824829,31.642204 
	C394.423615,27.303219 397.282990,22.213512 392.465515,18.696432 
	C391.964294,18.330511 391.213989,18.132706 390.583679,18.142506 
	C379.942047,18.307936 369.284607,18.230564 358.666779,18.837652 
	C353.131744,19.154121 348.512848,22.414127 347.530792,28.028440 
	C346.484589,34.009583 346.483673,40.253086 346.719055,46.355324 
	C346.932129,51.878407 350.285095,55.487301 356.422394,57.296825 
M265.437164,39.588730 
	C264.999878,51.924095 268.187225,56.010258 280.322601,58.421513 
	C283.577484,59.068237 286.973389,59.121929 290.148254,60.007912 
	C291.881531,60.491608 293.287476,62.148335 294.841034,63.276051 
	C293.098267,64.163857 291.395355,65.708305 289.605286,65.816933 
	C284.130676,66.149155 278.622589,65.921295 273.127502,65.926590 
	C266.790619,65.932693 265.265015,67.510468 265.396698,73.953224 
	C265.427307,75.449516 265.553986,76.944557 265.661133,78.438408 
	C265.904327,81.829681 267.783295,83.676094 271.134094,83.656151 
	C281.617889,83.593781 292.126495,83.813446 302.576782,83.153275 
	C311.935883,82.562057 317.128754,76.330765 317.284363,66.861107 
	C317.336304,63.700535 317.174194,60.535454 317.073883,57.373577 
	C316.826447,49.572281 313.933899,45.758427 306.287598,43.976856 
	C301.449738,42.849640 296.432922,42.492306 291.592072,41.374954 
	C290.230072,41.060574 289.206451,39.280128 288.027588,38.172138 
	C289.311218,37.401936 290.542664,36.095921 291.888580,35.964787 
	C295.522278,35.610752 299.204712,35.713715 302.867828,35.712620 
	C314.117126,35.709251 313.985870,35.722137 314.086884,24.446148 
	C314.126862,19.985178 312.411987,17.954346 307.964355,18.014503 
	C300.970581,18.109100 293.974792,18.153559 286.980652,18.103317 
	C270.313354,17.983591 265.367065,22.553978 265.437164,39.588730 
M1020.515259,18.083620 
	C1017.352539,18.056568 1014.188110,17.951973 1011.027405,18.019415 
	C1005.329956,18.140982 1003.764832,19.491901 1003.749390,25.071766 
	C1003.703735,41.549431 1003.745789,58.028805 1003.953186,74.504997 
	C1004.038635,81.299469 1005.669312,82.997452 1012.679077,83.226913 
	C1024.148682,83.602356 1035.631714,83.575951 1047.109375,83.681633 
	C1051.365479,83.720818 1053.611084,81.663139 1053.502808,77.278313 
	C1053.461792,75.614548 1053.461426,73.948486 1053.493530,72.284447 
	C1053.582397,67.686188 1051.460327,65.687523 1046.765381,65.868706 
	C1040.782471,66.099579 1034.770386,66.132706 1028.802246,65.754524 
	C1027.464600,65.669762 1026.257446,63.525925 1024.990112,62.330048 
	C1026.296265,61.394138 1027.516357,59.843433 1028.925903,59.646011 
	C1032.198730,59.187595 1035.563721,59.401867 1038.890381,59.308258 
	C1044.903564,59.139053 1046.375122,57.724258 1046.886108,51.685051 
	C1047.307373,46.706181 1045.318481,43.733536 1040.222290,42.814766 
	C1036.655151,42.171650 1032.910889,42.535004 1029.327026,41.950333 
	C1027.781982,41.698288 1025.517090,40.430187 1025.192261,39.198437 
	C1024.390991,36.158741 1026.919434,35.820103 1029.244141,35.819092 
	C1035.230347,35.816490 1041.217041,35.784149 1047.202759,35.845047 
	C1051.312012,35.886852 1053.389282,33.924622 1053.478271,29.842031 
	C1053.514526,28.177999 1053.559937,26.509918 1053.488037,24.848564 
	C1053.260132,19.577290 1051.767700,18.043329 1046.476685,18.020498 
	C1038.154297,17.984581 1029.831177,18.097155 1020.515259,18.083620 
M1112.499878,18.163389 
	C1105.668213,18.109669 1098.834106,18.147280 1092.005615,17.970493 
	C1087.362793,17.850288 1085.210571,19.977303 1085.258301,24.540565 
	C1085.272217,25.872221 1085.142212,27.206465 1085.180298,28.536602 
	C1085.346436,34.341785 1087.047119,35.902592 1092.760376,35.806633 
	C1097.470825,35.727520 1102.183838,35.790482 1108.074707,35.790482 
	C1101.901367,43.330402 1096.926025,50.193241 1091.126343,56.269527 
	C1085.363159,62.307583 1083.397827,69.007881 1083.849243,77.144577 
	C1084.113647,81.912247 1085.735718,83.628242 1090.390259,83.560143 
	C1101.886841,83.391930 1113.387817,83.508438 1124.886963,83.508896 
	C1136.135498,83.509338 1136.041016,83.505577 1136.384521,72.220833 
	C1136.521240,67.732368 1134.769043,65.810036 1130.236572,65.952110 
	C1124.338379,66.136993 1118.429932,65.997314 1111.186401,65.997314 
	C1117.193481,58.924995 1122.104126,52.667755 1127.523438,46.887474 
	C1133.841187,40.149059 1135.681274,32.282280 1134.836060,23.438360 
	C1134.465576,19.562222 1132.295654,17.932491 1128.495361,18.019810 
	C1123.498169,18.134632 1118.498291,18.121134 1112.499878,18.163389 
M48.991779,56.270493 
	C48.980049,57.436092 49.018692,58.604790 48.947231,59.766716 
	C48.724697,63.385178 47.181747,65.842720 43.192245,65.886162 
	C38.919998,65.932686 37.392273,63.234478 37.143581,59.485668 
	C37.033852,57.831615 37.174686,56.158279 37.244564,54.495499 
	C37.419956,50.321827 35.669968,47.817127 31.297829,47.535809 
	C28.812855,47.375904 26.102667,46.510315 23.905703,47.226231 
	C21.562956,47.989655 18.372746,49.908966 17.872900,51.904789 
	C15.962474,59.532864 15.398920,67.556236 18.925856,74.833138 
	C20.352383,77.776398 23.649956,80.594467 26.745865,81.797852 
	C35.429382,85.173187 44.621025,85.490944 53.751476,83.591568 
	C66.954796,80.844940 70.444489,76.449158 70.521164,63.089092 
	C70.582314,52.432899 70.550674,41.775108 70.730827,31.120914 
	C70.973618,16.762152 71.006012,16.725574 56.551868,17.010448 
	C50.577583,17.128195 48.955418,18.722916 48.935680,24.844151 
	C48.902924,35.002552 48.967964,45.161274 48.991779,56.270493 
z"/>
<path fill="#ECD74C" opacity="1.000000" stroke="none" 
	d="
M649.000000,150.922226 
	C713.653992,150.922241 777.808350,150.826080 841.961548,151.050598 
	C849.518982,151.077042 857.401489,151.810760 864.554565,154.058258 
	C878.850769,158.550034 885.241882,169.909119 886.923218,184.177765 
	C887.506470,189.127167 887.678528,194.149933 887.680237,199.139313 
	C887.720337,316.282837 887.711243,433.426361 887.711304,550.569885 
	C887.711304,551.902954 887.704712,553.236084 887.712830,554.569092 
	C887.755981,561.696472 887.958740,561.914368 894.959412,561.919312 
	C908.790039,561.929077 922.635559,562.335266 936.448120,561.835938 
	C964.829529,560.810059 976.701355,581.752380 971.606445,606.442139 
	C968.213501,622.884460 957.950806,631.158569 941.148499,631.993103 
	C939.319214,632.083984 937.483887,632.073792 935.651367,632.073792 
	C694.199036,632.077026 452.746704,632.076599 211.294357,632.077942 
	C202.052567,632.078003 192.848450,631.584045 185.039154,625.894836 
	C174.309082,618.077759 172.083023,606.390076 172.438766,594.319580 
	C173.036575,574.036682 186.168060,561.862976 206.486816,561.841614 
	C220.649445,561.826721 234.812195,561.975464 248.974915,561.979004 
	C256.617401,561.980957 257.885193,560.690186 257.971863,552.904175 
	C258.038635,546.906799 257.926941,540.907593 257.926727,534.909241 
	C257.922882,422.931335 257.903809,310.953461 257.977051,198.975601 
	C257.981171,192.671768 258.224213,186.278961 259.271393,180.082245 
	C261.997650,163.949753 272.410309,154.093399 288.640411,151.987564 
	C294.398804,151.240387 300.255890,150.967636 306.068207,150.964722 
	C420.212128,150.907578 534.356079,150.922226 649.000000,150.922226 
M682.500000,167.929459 
	C635.501038,167.929459 588.502136,167.929459 541.503174,167.929459 
	C461.671143,167.929474 381.839111,167.924683 302.007080,167.932709 
	C280.824341,167.934830 274.614868,174.045105 274.517944,195.307037 
	C274.372803,227.136871 274.328979,258.967285 274.305756,290.797516 
	C274.241577,378.794769 274.208832,466.792053 274.167633,554.789307 
	C274.161407,568.109924 274.982758,568.927124 288.239807,568.927124 
	C478.070068,568.927612 667.900330,568.927673 857.730591,568.927124 
	C870.425598,568.927124 871.072266,568.292419 871.069885,555.806335 
	C871.047180,436.975342 871.024292,318.144379 870.991943,199.313400 
	C870.991089,195.981155 871.019836,192.640060 870.802490,189.318283 
	C869.900696,175.534302 863.907776,169.276932 850.491516,168.130936 
	C847.509521,167.876221 844.496277,167.937424 841.497437,167.936844 
	C788.831604,167.926651 736.165833,167.929474 682.500000,167.929459 
M417.500061,580.840454 
	C349.174072,580.840454 280.848053,580.831116 212.522079,580.865479 
	C208.700989,580.867371 204.844116,580.968994 201.067780,581.488464 
	C195.788849,582.214600 192.869293,585.671021 192.125565,590.820496 
	C191.747101,593.441101 191.694305,596.140625 191.795685,598.792969 
	C192.187943,609.054993 196.050079,612.883423 206.318924,613.014771 
	C217.815491,613.161804 229.314514,613.152222 240.812469,613.152588 
	C470.454865,613.159424 700.097290,613.158752 929.739685,613.150757 
	C933.571533,613.150635 937.479248,613.485718 941.211792,612.847412 
	C944.346069,612.311340 948.276855,611.416504 950.106995,609.222412 
	C955.370728,602.911987 954.846436,595.217590 952.399475,587.910950 
	C950.278442,581.577576 944.555298,580.939697 938.825195,580.935364 
	C837.837891,580.859253 736.850525,580.777588 635.863220,580.718994 
	C628.132141,580.714478 627.660156,581.122375 625.059021,588.307068 
	C622.255676,596.050171 617.864197,599.713806 609.932007,599.766663 
	C585.435669,599.929932 560.936707,599.948853 536.440918,599.753418 
	C529.369263,599.697021 523.537109,596.993896 520.915771,589.573120 
	C517.781250,580.699524 517.690186,580.702515 507.986664,580.712158 
	C478.157806,580.741882 448.328949,580.795898 417.500061,580.840454 
M599.493774,580.840454 
	C578.181763,580.841187 556.869507,580.809631 535.558044,580.917419 
	C534.177246,580.924377 532.801758,582.003601 531.423767,582.584045 
	C532.405273,584.132568 533.050781,586.265137 534.457581,587.074341 
	C536.039612,587.984314 538.307617,587.897095 540.278625,587.905151 
	C557.928528,587.977295 575.578613,587.982849 593.228699,587.989136 
	C598.223572,587.990906 603.231995,588.143982 608.208984,587.829224 
	C612.039551,587.586975 614.910522,586.004700 613.579224,580.840454 
	C609.086426,580.840454 604.787903,580.840454 599.493774,580.840454 
z"/>
<path fill="#E7D24B" opacity="1.000000" stroke="none" 
	d="
M553.270996,69.018112 
	C550.747803,62.810555 546.657776,58.476048 540.504028,54.239952 
	C540.504028,61.444164 540.646790,67.669647 540.446228,73.884056 
	C540.339294,77.198753 541.413635,82.054298 536.985840,82.717720 
	C531.772949,83.498802 526.260986,82.652565 520.945496,81.982506 
	C520.152405,81.882545 519.222839,78.893227 519.204346,77.231140 
	C519.004089,59.259575 518.914978,41.285828 519.004150,23.313711 
	C519.011597,21.818953 520.161255,19.657368 521.420532,18.957315 
	C526.970886,15.871708 535.378235,17.461840 539.711426,22.246458 
	C544.248657,27.256380 548.595215,32.438908 553.025146,37.545998 
	C553.504272,37.461742 553.983459,37.377487 554.462585,37.293232 
	C554.639221,33.461868 554.919678,29.631845 554.968994,25.798847 
	C555.050476,19.472372 556.277710,18.121620 562.445618,18.000555 
	C576.302673,17.728567 576.276367,17.728630 576.309998,31.398167 
	C576.344360,45.378109 576.469849,59.357849 576.493591,73.337784 
	C576.509644,82.793724 575.522217,83.724457 566.315735,83.501640 
	C564.654663,83.461441 562.989136,83.437721 561.330139,83.509712 
	C557.250427,83.686729 555.205994,81.861885 554.898010,77.701515 
	C554.691223,74.907906 553.928223,72.155449 553.270996,69.018112 
z"/>
<path fill="#EDD74B" opacity="1.000000" stroke="none" 
	d="
M434.907654,80.180420 
	C432.797882,76.027733 429.725861,72.183815 429.424255,68.133568 
	C428.622711,57.371624 428.896179,46.519890 428.968079,35.705372 
	C429.040741,24.780304 432.592926,20.395979 443.158051,17.803715 
	C453.196899,15.340560 463.244507,15.380054 473.233856,18.120016 
	C481.879150,20.491318 486.011261,25.803864 486.055206,34.760151 
	C486.107452,45.410088 486.146576,56.062748 485.965820,66.710403 
	C485.790100,77.061646 481.690002,82.010887 471.561218,83.904465 
	C459.149536,86.224823 446.799164,86.999863 434.907654,80.180420 
M450.273468,59.005150 
	C450.423798,59.984402 450.568726,60.964516 450.725433,61.942745 
	C451.257019,65.261177 452.666290,67.877357 456.549164,67.005173 
	C460.139191,66.198769 464.743469,66.541870 464.593933,60.531292 
	C464.433441,54.081154 465.011230,47.615154 464.947235,41.159245 
	C464.902771,36.673836 462.195099,34.446686 457.502716,34.377094 
	C452.848907,34.308075 450.327362,36.504086 450.201965,41.203430 
	C450.051788,46.830006 450.200989,52.464569 450.273468,59.005150 
z"/>
<path fill="#EDD74B" opacity="1.000000" stroke="none" 
	d="
M950.442261,77.771942 
	C950.622009,75.381165 950.934082,73.389107 950.871155,71.408958 
	C950.624451,63.640045 948.956055,62.342571 941.104187,62.719090 
	C937.008972,62.915466 934.859009,64.434891 935.151733,68.752647 
	C935.275208,70.573219 935.078064,72.414009 935.168518,74.238579 
	C935.580933,82.549263 935.054199,83.217415 926.616028,83.600502 
	C924.139893,83.712921 921.626404,83.089508 919.156982,83.241333 
	C915.164429,83.486824 913.927490,81.671104 913.957825,77.914726 
	C914.069336,64.102127 914.003479,50.288055 913.994385,36.474548 
	C913.991821,32.647106 913.856995,28.817139 913.956848,24.992874 
	C914.097107,19.625849 915.575562,18.065393 920.818787,18.035250 
	C929.969360,17.982641 939.122864,18.024107 948.271057,18.216927 
	C950.901123,18.272360 953.596802,18.709173 956.124634,19.444664 
	C963.205566,21.504868 966.788940,26.457794 966.656677,33.854290 
	C966.615356,36.163864 966.437134,38.577251 965.722961,40.745975 
	C964.313965,45.024761 964.782532,48.405113 968.625549,51.265175 
	C969.975403,52.269733 971.395020,54.221424 971.431335,55.772301 
	C971.601074,63.019314 971.966797,70.373489 970.941467,77.499298 
	C970.198853,82.660683 965.158813,85.479210 959.986633,84.780075 
	C955.870605,84.223701 950.909302,84.245934 950.442261,77.771942 
M945.176514,40.437881 
	C945.511353,36.062023 942.526733,34.764839 939.232910,35.259953 
	C937.640869,35.499275 935.192566,38.152397 935.284058,39.574089 
	C935.420105,41.688694 937.051025,44.846237 938.788635,45.461273 
	C941.651978,46.474743 944.584045,45.055847 945.176514,40.437881 
z"/>
<path fill="#E8D34B" opacity="1.000000" stroke="none" 
	d="
M233.040863,48.942123 
	C233.489426,59.118549 233.985336,68.880775 234.188309,78.649101 
	C234.217438,80.050491 232.900574,82.661797 232.091629,82.708176 
	C226.550568,83.025932 220.923401,83.205032 215.462128,82.441093 
	C214.322708,82.281708 213.167297,78.030479 213.046219,75.613487 
	C212.727570,69.252525 211.636566,67.886681 205.479568,67.949989 
	C199.220978,68.014343 197.810211,69.418663 197.844528,75.550156 
	C197.882431,82.322517 196.538452,83.534081 189.715378,83.617630 
	C179.270325,83.745529 176.414856,85.759323 176.282028,70.050827 
	C176.144714,53.811592 180.646759,38.567455 187.285660,23.911049 
	C189.299316,19.465611 193.398773,17.955038 197.947403,17.884495 
	C204.422806,17.784073 210.955292,17.519541 217.353058,18.268078 
	C219.705582,18.543325 222.783371,21.060055 223.739975,23.314157 
	C227.233368,31.545982 229.971588,40.098301 233.040863,48.942123 
M202.716675,39.254997 
	C202.201660,40.294579 201.319336,41.309059 201.246231,42.378834 
	C201.081772,44.785767 200.465576,48.696060 201.570328,49.334431 
	C203.833969,50.642456 207.108536,50.200974 209.966873,50.479816 
	C210.128387,48.124203 210.787735,45.661079 210.308914,43.443745 
	C209.846558,41.302719 208.422867,39.251381 207.038300,37.456184 
	C205.153961,35.012997 203.726135,35.953167 202.716675,39.254997 
z"/>
<path fill="#EAD64B" opacity="1.000000" stroke="none" 
	d="
M877.167847,41.871078 
	C880.835693,53.345806 881.526794,64.751549 880.992432,76.272232 
	C880.718018,82.187546 878.738708,83.869011 872.857056,83.612183 
	C872.026550,83.575928 871.194702,83.512009 870.364746,83.527756 
	C859.800049,83.728180 859.748474,83.732452 859.506592,72.971558 
	C859.437927,69.917152 858.118835,68.271317 855.108948,68.079002 
	C853.284729,67.962440 851.448608,68.047462 849.618774,68.001564 
	C845.661560,67.902290 843.941345,69.721069 843.952332,73.763763 
	C843.978088,83.190353 843.532410,83.530098 834.202271,83.508270 
	C823.570312,83.483383 823.786865,83.335983 822.980774,72.779808 
	C821.601501,54.718479 827.411316,38.380257 834.470459,22.338898 
	C835.214783,20.647491 838.021545,18.978409 839.969788,18.855402 
	C848.402405,18.322996 856.877625,18.154947 865.321899,18.396717 
	C866.890686,18.441635 869.054199,20.695757 869.798950,22.423519 
	C872.487183,28.660492 874.686829,35.108112 877.167847,41.871078 
M855.999023,42.454895 
	C855.841980,41.813683 855.869995,41.021744 855.493408,40.559361 
	C854.352173,39.158112 853.054138,37.884518 851.817200,36.561199 
	C850.569702,37.859806 849.067017,39.002518 848.150269,40.503162 
	C847.320374,41.861576 847.267639,43.668976 846.629272,45.175438 
	C845.187866,48.576797 846.830017,50.516335 849.870056,50.831287 
	C852.186584,51.071274 855.079163,50.686710 856.821533,49.384220 
	C857.652893,48.762714 856.406494,45.361622 855.999023,42.454895 
z"/>
<path fill="#EAD44B" opacity="1.000000" stroke="none" 
	d="
M783.937927,81.099129 
	C768.906433,87.945404 754.537415,86.544571 740.458008,79.383545 
	C737.153381,77.702782 735.067017,75.092598 734.995117,71.119598 
	C734.700195,54.820938 734.296387,38.523933 734.109680,22.224297 
	C734.096375,21.061962 735.389832,18.980614 736.278870,18.863041 
	C740.991272,18.239809 745.874023,17.426765 750.472351,18.137764 
	C752.340027,18.426550 754.752197,22.293730 754.987854,24.720016 
	C755.725952,32.320324 755.574707,40.009285 755.709961,47.664909 
	C755.786438,51.995251 755.777039,56.327736 755.755554,60.659004 
	C755.731689,65.478951 758.579773,67.048973 762.851379,66.973106 
	C767.087646,66.897850 769.930420,65.223289 769.937866,60.491241 
	C769.955933,48.995808 769.919312,37.499962 770.008972,26.005095 
	C770.061584,19.269848 771.171875,18.239685 777.843140,18.070210 
	C791.212952,17.730562 791.183411,17.730343 791.083496,31.277847 
	C790.993774,43.439701 790.946838,55.602108 790.944824,67.764275 
	C790.943848,73.316483 789.020142,77.816223 783.937927,81.099129 
z"/>
<path fill="#ECD64B" opacity="1.000000" stroke="none" 
	d="
M137.676971,83.708000 
	C126.568893,83.669617 115.921471,83.565041 105.274826,83.617867 
	C97.951859,83.654190 96.721260,82.660713 96.700073,75.464668 
	C96.651039,58.815411 96.643875,42.165752 96.706360,25.516584 
	C96.730438,19.099405 97.914154,18.051964 104.386932,18.043203 
	C115.873138,18.027657 127.359344,18.010233 138.845551,18.005133 
	C145.209930,18.002308 146.468658,19.251429 146.504333,25.550020 
	C146.510910,26.712690 146.504257,27.875515 146.494354,29.038189 
	C146.447769,34.512516 145.327576,35.642433 139.664169,35.698162 
	C134.336853,35.750591 129.005432,35.606182 123.682381,35.766666 
	C121.360603,35.836662 118.157066,35.207623 118.000412,38.954426 
	C117.830315,43.022991 121.181496,41.932636 123.432182,42.109970 
	C125.580338,42.279224 127.756996,42.123363 129.919815,42.063282 
	C137.137314,41.862778 139.129883,43.818031 139.072525,51.085495 
	C139.017044,58.113998 137.106277,59.870621 129.997925,59.502342 
	C127.838821,59.390480 125.649567,59.157452 123.519051,59.390526 
	C121.306313,59.632591 117.922539,58.559494 117.982208,62.559353 
	C118.036469,66.196747 120.943985,65.972656 123.458405,65.979156 
	C128.285782,65.991653 133.113525,65.971840 137.940689,65.923897 
	C145.019928,65.853584 146.370361,67.047821 146.516098,73.610619 
	C146.704758,82.106117 145.589066,83.450890 137.676971,83.708000 
z"/>
<path fill="#EBD54B" opacity="1.000000" stroke="none" 
	d="
M651.907715,47.724411 
	C651.919434,41.384640 651.276001,35.312859 652.318359,29.545776 
	C653.636230,22.254622 659.385864,18.737154 666.448425,18.375862 
	C675.908142,17.891937 685.406311,17.954500 694.880188,18.153847 
	C696.477295,18.187452 698.736755,19.731638 699.493958,21.196346 
	C703.586609,29.112799 699.018188,36.170845 690.284607,35.920410 
	C686.134827,35.801414 681.960571,35.633476 677.837891,35.975685 
	C676.446289,36.091198 675.179382,37.709953 673.855469,38.641678 
	C675.044006,39.579079 676.111328,41.058502 677.442871,41.356071 
	C682.135498,42.404774 686.942261,42.929897 691.662170,43.871880 
	C699.370605,45.410282 702.720642,49.326916 703.108337,57.249809 
	C703.302979,61.226711 703.503357,65.248596 703.138489,69.198158 
	C702.388306,77.318504 696.921143,82.773636 688.851501,83.125946 
	C678.553467,83.575546 668.233215,83.642258 657.922852,83.627136 
	C652.568237,83.619278 651.380737,82.113419 651.299622,76.577225 
	C651.277649,75.080017 651.308777,73.582062 651.312927,72.084442 
	C651.324951,67.780693 653.297913,65.728249 657.780457,65.879669 
	C663.597717,66.076187 669.438538,66.159706 675.242859,65.828773 
	C677.204651,65.716919 679.085999,64.195084 681.004150,63.317619 
	C679.312561,62.162868 677.766113,60.467602 675.899109,59.966431 
	C672.070374,58.938667 668.041382,58.686684 664.146851,57.867729 
	C658.507629,56.681919 653.804443,54.171314 651.907715,47.724411 
z"/>
<path fill="#ECD64B" opacity="1.000000" stroke="none" 
	d="
M356.053040,57.158577 
	C350.285095,55.487301 346.932129,51.878407 346.719055,46.355324 
	C346.483673,40.253086 346.484589,34.009583 347.530792,28.028440 
	C348.512848,22.414127 353.131744,19.154121 358.666779,18.837652 
	C369.284607,18.230564 379.942047,18.307936 390.583679,18.142506 
	C391.213989,18.132706 391.964294,18.330511 392.465515,18.696432 
	C397.282990,22.213512 394.423615,27.303219 394.824829,31.642204 
	C395.145294,35.107918 391.961792,35.641544 389.144501,35.687672 
	C383.818573,35.774891 378.480988,35.628979 373.172028,35.960831 
	C371.719574,36.051620 370.351837,37.497318 368.945221,38.321236 
	C370.175537,39.388908 371.258270,41.074825 372.663422,41.410225 
	C377.171906,42.486359 381.819275,42.962486 386.376892,43.854839 
	C394.281250,45.402454 397.762512,49.576374 398.054962,57.621433 
	C398.103302,58.951782 398.070984,60.285027 398.078156,61.616920 
	C398.166504,78.049576 394.529755,82.459831 378.098480,83.533966 
	C368.838440,84.139313 359.484009,83.304871 350.172394,83.104881 
	C349.679504,83.094292 349.092651,83.098526 348.712585,82.848259 
	C343.505859,79.419655 347.333313,74.277306 346.587341,70.001076 
	C346.405762,68.960274 349.406647,66.311058 351.076965,66.186859 
	C357.536194,65.706551 364.058716,66.134392 370.535767,65.799919 
	C372.332123,65.707169 374.052887,64.149773 375.808319,63.264343 
	C374.247528,62.138809 372.831177,60.426403 371.098358,59.999916 
	C366.276703,58.813183 361.323578,58.160458 356.053040,57.158577 
z"/>
<path fill="#ECD64B" opacity="1.000000" stroke="none" 
	d="
M265.457886,39.143917 
	C265.367065,22.553978 270.313354,17.983591 286.980652,18.103317 
	C293.974792,18.153559 300.970581,18.109100 307.964355,18.014503 
	C312.411987,17.954346 314.126862,19.985178 314.086884,24.446148 
	C313.985870,35.722137 314.117126,35.709251 302.867828,35.712620 
	C299.204712,35.713715 295.522278,35.610752 291.888580,35.964787 
	C290.542664,36.095921 289.311218,37.401936 288.027588,38.172134 
	C289.206451,39.280128 290.230072,41.060574 291.592072,41.374954 
	C296.432922,42.492306 301.449738,42.849640 306.287598,43.976856 
	C313.933899,45.758427 316.826447,49.572281 317.073883,57.373577 
	C317.174194,60.535454 317.336304,63.700535 317.284363,66.861107 
	C317.128754,76.330765 311.935883,82.562057 302.576782,83.153275 
	C292.126495,83.813446 281.617889,83.593781 271.134094,83.656151 
	C267.783295,83.676094 265.904327,81.829681 265.661133,78.438408 
	C265.553986,76.944557 265.427307,75.449516 265.396698,73.953224 
	C265.265015,67.510468 266.790619,65.932693 273.127502,65.926590 
	C278.622589,65.921295 284.130676,66.149155 289.605286,65.816933 
	C291.395355,65.708305 293.098267,64.163857 294.841034,63.276047 
	C293.287476,62.148335 291.881531,60.491608 290.148254,60.007912 
	C286.973389,59.121929 283.577484,59.068237 280.322601,58.421513 
	C268.187225,56.010258 264.999878,51.924095 265.457886,39.143917 
z"/>
<path fill="#ECD74C" opacity="1.000000" stroke="none" 
	d="
M1021.011841,18.115238 
	C1029.831177,18.097155 1038.154297,17.984581 1046.476685,18.020498 
	C1051.767700,18.043329 1053.260132,19.577290 1053.488037,24.848564 
	C1053.559937,26.509918 1053.514526,28.177999 1053.478271,29.842031 
	C1053.389282,33.924622 1051.312012,35.886852 1047.202759,35.845047 
	C1041.217041,35.784149 1035.230347,35.816490 1029.244141,35.819092 
	C1026.919434,35.820103 1024.390991,36.158741 1025.192261,39.198437 
	C1025.517090,40.430187 1027.781982,41.698288 1029.327026,41.950333 
	C1032.910889,42.535004 1036.655151,42.171650 1040.222290,42.814766 
	C1045.318481,43.733536 1047.307373,46.706181 1046.886108,51.685051 
	C1046.375122,57.724258 1044.903564,59.139053 1038.890381,59.308258 
	C1035.563721,59.401867 1032.198730,59.187595 1028.925903,59.646011 
	C1027.516357,59.843433 1026.296265,61.394138 1024.990112,62.330040 
	C1026.257446,63.525925 1027.464600,65.669762 1028.802246,65.754524 
	C1034.770386,66.132706 1040.782471,66.099579 1046.765381,65.868706 
	C1051.460327,65.687523 1053.582397,67.686188 1053.493530,72.284447 
	C1053.461426,73.948486 1053.461792,75.614548 1053.502808,77.278313 
	C1053.611084,81.663139 1051.365479,83.720818 1047.109375,83.681633 
	C1035.631714,83.575951 1024.148682,83.602356 1012.679077,83.226913 
	C1005.669312,82.997452 1004.038635,81.299469 1003.953186,74.504997 
	C1003.745789,58.028805 1003.703735,41.549431 1003.749390,25.071766 
	C1003.764832,19.491901 1005.329956,18.140982 1011.027405,18.019415 
	C1014.188110,17.951973 1017.352539,18.056568 1021.011841,18.115238 
z"/>
<path fill="#ECD74C" opacity="1.000000" stroke="none" 
	d="
M1112.999756,18.163101 
	C1118.498291,18.121134 1123.498169,18.134632 1128.495361,18.019810 
	C1132.295654,17.932491 1134.465576,19.562222 1134.836060,23.438360 
	C1135.681274,32.282280 1133.841187,40.149059 1127.523438,46.887474 
	C1122.104126,52.667755 1117.193481,58.924995 1111.186401,65.997314 
	C1118.429932,65.997314 1124.338379,66.136993 1130.236572,65.952110 
	C1134.769043,65.810036 1136.521240,67.732368 1136.384521,72.220833 
	C1136.041016,83.505577 1136.135498,83.509338 1124.886963,83.508896 
	C1113.387817,83.508438 1101.886841,83.391930 1090.390259,83.560143 
	C1085.735718,83.628242 1084.113647,81.912247 1083.849243,77.144577 
	C1083.397827,69.007881 1085.363159,62.307583 1091.126343,56.269527 
	C1096.926025,50.193241 1101.901367,43.330402 1108.074707,35.790482 
	C1102.183838,35.790482 1097.470825,35.727520 1092.760376,35.806633 
	C1087.047119,35.902592 1085.346436,34.341785 1085.180298,28.536602 
	C1085.142212,27.206465 1085.272217,25.872221 1085.258301,24.540565 
	C1085.210571,19.977303 1087.362793,17.850288 1092.005615,17.970493 
	C1098.834106,18.147280 1105.668213,18.109669 1112.999756,18.163101 
z"/>
<path fill="#E9D54A" opacity="1.000000" stroke="none" 
	d="
M48.991791,55.795174 
	C48.967964,45.161274 48.902924,35.002552 48.935680,24.844151 
	C48.955418,18.722916 50.577583,17.128195 56.551868,17.010448 
	C71.006012,16.725574 70.973618,16.762152 70.730827,31.120914 
	C70.550674,41.775108 70.582314,52.432899 70.521164,63.089092 
	C70.444489,76.449158 66.954796,80.844940 53.751476,83.591568 
	C44.621025,85.490944 35.429382,85.173187 26.745865,81.797852 
	C23.649956,80.594467 20.352383,77.776398 18.925856,74.833138 
	C15.398920,67.556236 15.962474,59.532864 17.872900,51.904789 
	C18.372746,49.908966 21.562956,47.989655 23.905703,47.226231 
	C26.102667,46.510315 28.812855,47.375904 31.297829,47.535809 
	C35.669968,47.817127 37.419956,50.321827 37.244564,54.495499 
	C37.174686,56.158279 37.033852,57.831615 37.143581,59.485668 
	C37.392273,63.234478 38.919998,65.932686 43.192245,65.886162 
	C47.181747,65.842720 48.724697,63.385178 48.947231,59.766716 
	C49.018692,58.604790 48.980049,57.436092 48.991791,55.795174 
z"/>
<path fill="#2F352C" opacity="1.000000" stroke="none" 
	d="
M683.000000,167.929459 
	C736.165833,167.929474 788.831604,167.926651 841.497437,167.936844 
	C844.496277,167.937424 847.509521,167.876221 850.491516,168.130936 
	C863.907776,169.276932 869.900696,175.534302 870.802490,189.318283 
	C871.019836,192.640060 870.991089,195.981155 870.991943,199.313400 
	C871.024292,318.144379 871.047180,436.975342 871.069885,555.806335 
	C871.072266,568.292419 870.425598,568.927124 857.730591,568.927124 
	C667.900330,568.927673 478.070068,568.927612 288.239807,568.927124 
	C274.982758,568.927124 274.161407,568.109924 274.167633,554.789307 
	C274.208832,466.792053 274.241577,378.794769 274.305756,290.797516 
	C274.328979,258.967285 274.372803,227.136871 274.517944,195.307037 
	C274.614868,174.045105 280.824341,167.934830 302.007080,167.932709 
	C381.839111,167.924683 461.671143,167.929474 541.503174,167.929459 
	C588.502136,167.929459 635.501038,167.929459 683.000000,167.929459 
M836.299500,204.826309 
	C833.659729,204.576431 831.020386,204.115601 828.380188,204.110687 
	C810.381165,204.077118 792.381958,204.171341 774.382812,204.165802 
	C622.718628,204.119186 471.054413,204.058914 319.390228,204.006332 
	C305.955139,204.001678 305.005585,204.964874 305.005371,218.501389 
	C305.003784,322.667175 305.004181,426.832977 305.004883,530.998779 
	C305.004974,543.919800 305.567688,544.487366 318.471802,544.487488 
	C488.137054,544.488953 657.802307,544.488831 827.467529,544.483459 
	C829.299011,544.483398 831.130432,544.372559 832.961914,544.371338 
	C837.901001,544.368103 840.262390,541.955688 840.234741,536.981262 
	C840.186584,528.321655 840.292786,519.661377 840.285645,511.001343 
	C840.258972,478.669525 840.154480,446.337646 840.186890,414.005890 
	C840.237488,363.510284 840.382935,313.014709 840.472839,262.519135 
	C840.501099,246.685989 840.583435,230.851578 840.400574,215.020508 
	C840.360535,211.548981 841.042114,207.481476 836.299500,204.826309 
M574.141968,179.058731 
	C572.393799,179.458557 569.871216,179.282532 569.057434,180.377075 
	C567.316284,182.718781 565.308716,185.809235 565.517029,188.425262 
	C565.808411,192.084686 569.217041,194.898682 573.000122,194.101044 
	C575.599976,193.552856 578.834778,191.196747 579.813599,188.832291 
	C581.581299,184.562210 578.889832,181.270065 574.141968,179.058731 
z"/>
<path fill="#2F352D" opacity="1.000000" stroke="none" 
	d="
M418.000061,580.840454 
	C448.328949,580.795898 478.157806,580.741882 507.986664,580.712158 
	C517.690186,580.702515 517.781250,580.699524 520.915771,589.573120 
	C523.537109,596.993896 529.369263,599.697021 536.440918,599.753418 
	C560.936707,599.948853 585.435669,599.929932 609.932007,599.766663 
	C617.864197,599.713806 622.255676,596.050171 625.059021,588.307068 
	C627.660156,581.122375 628.132141,580.714478 635.863220,580.718994 
	C736.850525,580.777588 837.837891,580.859253 938.825195,580.935364 
	C944.555298,580.939697 950.278442,581.577576 952.399475,587.910950 
	C954.846436,595.217590 955.370728,602.911987 950.106995,609.222412 
	C948.276855,611.416504 944.346069,612.311340 941.211792,612.847412 
	C937.479248,613.485718 933.571533,613.150635 929.739685,613.150757 
	C700.097290,613.158752 470.454865,613.159424 240.812469,613.152588 
	C229.314514,613.152222 217.815491,613.161804 206.318924,613.014771 
	C196.050079,612.883423 192.187943,609.054993 191.795685,598.792969 
	C191.694305,596.140625 191.747101,593.441101 192.125565,590.820496 
	C192.869293,585.671021 195.788849,582.214600 201.067780,581.488464 
	C204.844116,580.968994 208.700989,580.867371 212.522079,580.865479 
	C280.848053,580.831116 349.174072,580.840454 418.000061,580.840454 
M262.790161,600.776672 
	C263.899414,599.232178 266.124817,597.423218 265.837280,596.209717 
	C265.472473,594.670044 263.164429,592.690247 261.524536,592.518188 
	C256.110352,591.950256 250.620178,592.055359 245.158340,592.014343 
	C242.195694,591.992065 239.715714,593.104309 239.719238,596.465149 
	C239.723053,600.091797 242.322556,601.099121 245.504761,601.073181 
	C250.974167,601.028625 256.443604,600.986450 262.790161,600.776672 
z"/>
<path fill="#2F352D" opacity="1.000000" stroke="none" 
	d="
M599.991577,580.840454 
	C604.787903,580.840454 609.086426,580.840454 613.579224,580.840454 
	C614.910522,586.004700 612.039551,587.586975 608.208984,587.829224 
	C603.231995,588.143982 598.223572,587.990906 593.228699,587.989136 
	C575.578613,587.982849 557.928528,587.977295 540.278625,587.905151 
	C538.307617,587.897095 536.039612,587.984314 534.457581,587.074341 
	C533.050781,586.265137 532.405273,584.132568 531.423767,582.584106 
	C532.801758,582.003601 534.177246,580.924377 535.558044,580.917419 
	C556.869507,580.809631 578.181763,580.841187 599.991577,580.840454 
z"/>
<path fill="#41442F" opacity="1.000000" stroke="none" 
	d="
M450.247009,58.550411 
	C450.200989,52.464569 450.051788,46.830006 450.201965,41.203430 
	C450.327362,36.504086 452.848907,34.308075 457.502716,34.377094 
	C462.195099,34.446686 464.902771,36.673836 464.947235,41.159245 
	C465.011230,47.615154 464.433441,54.081154 464.593933,60.531292 
	C464.743469,66.541870 460.139191,66.198769 456.549164,67.005173 
	C452.666290,67.877357 451.257019,65.261177 450.725433,61.942745 
	C450.568726,60.964516 450.423798,59.984402 450.247009,58.550411 
z"/>
<path fill="#41442F" opacity="1.000000" stroke="none" 
	d="
M945.145020,40.846153 
	C944.584045,45.055847 941.651978,46.474743 938.788635,45.461273 
	C937.051025,44.846237 935.420105,41.688694 935.284058,39.574089 
	C935.192566,38.152397 937.640869,35.499275 939.232910,35.259953 
	C942.526733,34.764839 945.511353,36.062023 945.145020,40.846153 
z"/>
<path fill="#41442F" opacity="1.000000" stroke="none" 
	d="
M202.816406,38.887383 
	C203.726135,35.953167 205.153961,35.012997 207.038300,37.456184 
	C208.422867,39.251381 209.846558,41.302719 210.308914,43.443745 
	C210.787735,45.661079 210.128387,48.124203 209.966873,50.479813 
	C207.108536,50.200974 203.833969,50.642456 201.570328,49.334431 
	C200.465576,48.696060 201.081772,44.785767 201.246231,42.378834 
	C201.319336,41.309059 202.201660,40.294579 202.816406,38.887383 
z"/>
<path fill="#41442F" opacity="1.000000" stroke="none" 
	d="
M856.050171,42.837227 
	C856.406494,45.361622 857.652893,48.762714 856.821533,49.384220 
	C855.079163,50.686710 852.186584,51.071274 849.870056,50.831287 
	C846.830017,50.516335 845.187866,48.576797 846.629272,45.175438 
	C847.267639,43.668976 847.320374,41.861576 848.150269,40.503162 
	C849.067017,39.002518 850.569702,37.859806 851.817200,36.561180 
	C853.054138,37.884518 854.352173,39.158112 855.493408,40.559361 
	C855.869995,41.021744 855.841980,41.813683 856.050171,42.837227 
z"/>
<path fill="#F1DB4C" opacity="1.000000" stroke="none" 
	d="
M836.680664,205.010895 
	C841.042114,207.481476 840.360535,211.548981 840.400574,215.020508 
	C840.583435,230.851578 840.501099,246.685989 840.472839,262.519135 
	C840.382935,313.014709 840.237488,363.510284 840.186890,414.005890 
	C840.154480,446.337646 840.258972,478.669525 840.285645,511.001343 
	C840.292786,519.661377 840.186584,528.321655 840.234741,536.981262 
	C840.262390,541.955688 837.901001,544.368103 832.961914,544.371338 
	C831.130432,544.372559 829.299011,544.483398 827.467529,544.483459 
	C657.802307,544.488831 488.137054,544.488953 318.471802,544.487488 
	C305.567688,544.487366 305.004974,543.919800 305.004883,530.998779 
	C305.004181,426.832977 305.003784,322.667175 305.005371,218.501389 
	C305.005585,204.964874 305.955139,204.001678 319.390228,204.006332 
	C471.054413,204.058914 622.718628,204.119186 774.382812,204.165802 
	C792.381958,204.171341 810.381165,204.077118 828.380188,204.110687 
	C831.020386,204.115601 833.659729,204.576431 836.680664,205.010895 
M811.262817,408.634216 
	C816.328247,399.077332 815.901489,389.086945 813.248596,379.069031 
	C812.024475,374.446472 808.414612,372.680511 803.687317,372.723663 
	C787.036926,372.875641 770.381470,372.716614 753.735840,373.060150 
	C738.189209,373.380981 727.818054,381.588898 723.675476,396.652130 
	C720.274963,409.016785 720.310425,421.704834 721.473511,434.341614 
	C723.440857,455.716248 734.522888,461.530304 751.673523,465.090698 
	C758.831299,466.576660 766.077454,467.640320 773.226929,469.161530 
	C776.713196,469.903320 778.584473,472.297211 778.259705,476.087219 
	C777.926453,479.975128 775.432739,481.513855 771.950378,481.917725 
	C770.467102,482.089722 768.956299,482.064026 767.458130,482.062531 
	C756.134338,482.051392 744.810486,482.019775 733.486694,482.002869 
	C725.510742,481.990936 722.115784,484.828430 721.529968,492.791534 
	C721.140320,498.087616 721.471375,503.437500 721.497437,508.763214 
	C721.551636,519.816101 724.260498,522.539001 735.470459,522.482483 
	C748.627136,522.416138 761.783325,522.231323 774.939453,522.077820 
	C781.432800,522.002075 788.016541,522.534973 794.400024,521.646973 
	C808.430420,519.695312 819.000854,507.516815 819.949097,491.961578 
	C820.605591,481.193085 820.282043,470.347260 820.025513,459.544800 
	C819.644714,443.507629 811.710754,434.220642 796.050476,431.057739 
	C787.414734,429.313568 778.738464,427.769501 770.105469,426.012543 
	C766.404053,425.259247 763.585144,423.598969 763.939331,419.015472 
	C764.301331,414.331238 767.552002,413.247437 771.231079,413.221405 
	C780.208008,413.157898 789.189148,413.329468 798.164612,413.562561 
	C802.981628,413.687683 807.490234,413.236694 811.262817,408.634216 
M608.703491,509.651947 
	C611.718506,516.734375 616.766235,521.966125 623.944763,524.560974 
	C642.447632,531.249207 661.322144,532.529724 680.227478,526.506592 
	C690.465332,523.244873 699.926025,518.030823 703.227844,506.933868 
	C705.424133,499.552063 706.598022,491.635773 706.771301,483.925934 
	C707.268982,461.788544 707.049622,439.634491 707.062439,417.486969 
	C707.069519,405.330444 707.128113,393.170624 706.871887,381.018463 
	C706.717407,373.694550 704.477173,371.551392 697.198120,371.139832 
	C692.048523,370.848602 686.878601,370.902740 681.717346,370.833893 
	C668.859558,370.662384 665.763000,373.641907 665.504517,386.408936 
	C665.477539,387.740723 665.492004,389.073547 665.497742,390.405823 
	C665.608521,416.216003 665.755981,442.026184 665.789368,467.836456 
	C665.793640,471.143555 665.553223,474.531921 664.809204,477.739563 
	C663.763123,482.248779 661.115051,485.544434 656.047791,485.984802 
	C649.838074,486.524445 646.915955,484.980011 644.800964,479.334259 
	C643.776917,476.600739 643.293213,473.558289 643.144531,470.626312 
	C642.866699,465.145660 643.224548,459.632050 642.928589,454.153198 
	C642.524658,446.677612 640.193542,444.192474 632.862915,442.916138 
	C629.100098,442.260956 625.305542,441.700317 621.501404,441.387085 
	C612.429443,440.640076 606.932800,443.844971 605.820312,452.810730 
	C604.353577,464.630981 603.993958,476.675659 604.296875,488.594910 
	C604.470459,495.425934 606.899719,502.199646 608.703491,509.651947 
z"/>
<path fill="#E7D24B" opacity="1.000000" stroke="none" 
	d="
M574.521240,179.155792 
	C578.889832,181.270065 581.581299,184.562210 579.813599,188.832291 
	C578.834778,191.196747 575.599976,193.552856 573.000122,194.101044 
	C569.217041,194.898682 565.808411,192.084686 565.517029,188.425262 
	C565.308716,185.809235 567.316284,182.718781 569.057434,180.377075 
	C569.871216,179.282532 572.393799,179.458557 574.521240,179.155792 
z"/>
<path fill="#D6C448" opacity="1.000000" stroke="none" 
	d="
M262.351593,600.859985 
	C256.443604,600.986450 250.974167,601.028625 245.504761,601.073181 
	C242.322556,601.099121 239.723053,600.091797 239.719238,596.465149 
	C239.715714,593.104309 242.195694,591.992065 245.158340,592.014343 
	C250.620178,592.055359 256.110352,591.950256 261.524536,592.518188 
	C263.164429,592.690247 265.472473,594.670044 265.837280,596.209717 
	C266.124817,597.423218 263.899414,599.232178 262.351593,600.859985 
z"/>
<path fill="#2E342C" opacity="1.000000" stroke="none" 
	d="
M811.072754,408.959900 
	C807.490234,413.236694 802.981628,413.687683 798.164612,413.562561 
	C789.189148,413.329468 780.208008,413.157898 771.231079,413.221405 
	C767.552002,413.247437 764.301331,414.331238 763.939331,419.015472 
	C763.585144,423.598969 766.404053,425.259247 770.105469,426.012543 
	C778.738464,427.769501 787.414734,429.313568 796.050476,431.057739 
	C811.710754,434.220642 819.644714,443.507629 820.025513,459.544800 
	C820.282043,470.347260 820.605591,481.193085 819.949097,491.961578 
	C819.000854,507.516815 808.430420,519.695312 794.400024,521.646973 
	C788.016541,522.534973 781.432800,522.002075 774.939453,522.077820 
	C761.783325,522.231323 748.627136,522.416138 735.470459,522.482483 
	C724.260498,522.539001 721.551636,519.816101 721.497437,508.763214 
	C721.471375,503.437500 721.140320,498.087616 721.529968,492.791534 
	C722.115784,484.828430 725.510742,481.990936 733.486694,482.002869 
	C744.810486,482.019775 756.134338,482.051392 767.458130,482.062531 
	C768.956299,482.064026 770.467102,482.089722 771.950378,481.917725 
	C775.432739,481.513855 777.926453,479.975128 778.259705,476.087219 
	C778.584473,472.297211 776.713196,469.903320 773.226929,469.161530 
	C766.077454,467.640320 758.831299,466.576660 751.673523,465.090698 
	C734.522888,461.530304 723.440857,455.716248 721.473511,434.341614 
	C720.310425,421.704834 720.274963,409.016785 723.675476,396.652130 
	C727.818054,381.588898 738.189209,373.380981 753.735840,373.060150 
	C770.381470,372.716614 787.036926,372.875641 803.687317,372.723663 
	C808.414612,372.680511 812.024475,374.446472 813.248596,379.069031 
	C815.901489,389.086945 816.328247,399.077332 811.072754,408.959900 
z"/>
<path fill="#2E332C" opacity="1.000000" stroke="none" 
	d="
M608.508423,509.325562 
	C606.899719,502.199646 604.470459,495.425934 604.296875,488.594910 
	C603.993958,476.675659 604.353577,464.630981 605.820312,452.810730 
	C606.932800,443.844971 612.429443,440.640076 621.501404,441.387085 
	C625.305542,441.700317 629.100098,442.260956 632.862915,442.916138 
	C640.193542,444.192474 642.524658,446.677612 642.928589,454.153198 
	C643.224548,459.632050 642.866699,465.145660 643.144531,470.626312 
	C643.293213,473.558289 643.776917,476.600739 644.800964,479.334259 
	C646.915955,484.980011 649.838074,486.524445 656.047791,485.984802 
	C661.115051,485.544434 663.763123,482.248779 664.809204,477.739563 
	C665.553223,474.531921 665.793640,471.143555 665.789368,467.836456 
	C665.755981,442.026184 665.608521,416.216003 665.497742,390.405823 
	C665.492004,389.073547 665.477539,387.740723 665.504517,386.408936 
	C665.763000,373.641907 668.859558,370.662384 681.717346,370.833893 
	C686.878601,370.902740 692.048523,370.848602 697.198120,371.139832 
	C704.477173,371.551392 706.717407,373.694550 706.871887,381.018463 
	C707.128113,393.170624 707.069519,405.330444 707.062439,417.486969 
	C707.049622,439.634491 707.268982,461.788544 706.771301,483.925934 
	C706.598022,491.635773 705.424133,499.552063 703.227844,506.933868 
	C699.926025,518.030823 690.465332,523.244873 680.227478,526.506592 
	C661.322144,532.529724 642.447632,531.249207 623.944763,524.560974 
	C616.766235,521.966125 611.718506,516.734375 608.508423,509.325562 
z"/>
</svg>